<svg xmlns="http://www.w3.org/2000/svg"><symbol id="icon-facebook" viewBox="0 0 24 24"><path d="M9 8H6v4h3v12h5V12h3.642L18 8h-4V6.333C14 5.378 14.192 5 15.115 5H18V0h-3.808C10.596 0 9 1.583 9 4.615V8z"/></symbol><symbol id="icon-linkedin" viewBox="0 0 24 24"><path d="M4.98 3.5C4.98 4.881 3.87 6 2.5 6S.02 4.881.02 3.5C.02 2.12 1.13 1 2.5 1s2.48 1.12 2.48 2.5zM5 8H0v16h5V8zm7.982 0H8.014v16h4.969v-8.399c0-4.67 6.029-5.052 6.029 0V24H24V13.869c0-7.88-8.922-7.593-11.018-3.714V8z"/></symbol><symbol id="icon-skype" viewBox="0 0 24 24"><path d="M22.987 13.966C24.344 6.201 17.571-.446 9.935.987 4.114-2.574-2.568 4.213 1 10.016c-1.387 7.747 5.384 14.48 13.083 13.01 5.832 3.536 12.493-3.26 8.904-9.06zm-10.603 5.891c-3.181 0-6.378-1.448-6.362-3.941.005-.752.564-1.442 1.309-1.442 1.873 0 1.855 2.795 4.837 2.795 2.093 0 2.807-1.146 2.807-1.944 0-2.886-9.043-1.117-9.043-6.543 0-2.938 2.402-4.962 6.179-4.741 3.602.213 5.713 1.803 5.917 3.289.101.971-.542 1.727-1.659 1.727-1.628 0-1.795-2.181-4.6-2.181-1.266 0-2.334.528-2.334 1.674 0 2.395 8.99 1.005 8.99 6.276-.001 3.039-2.423 5.031-6.041 5.031z"/></symbol><symbol id="icon-telegram"><path d="M18.384 22.779a1.19 1.19 0 0 0 1.107.145 1.16 1.16 0 0 0 .724-.84C21.084 18 23.192 7.663 23.983 3.948a.78.78 0 0 0-.26-.758.8.8 0 0 0-.797-.14C18.733 4.602 5.82 9.447.542 11.4a.827.827 0 0 0-.542.799c.012.354.25.661.593.764 2.367.708 5.474 1.693 5.474 1.693s1.452 4.385 2.209 6.615c.095.28.314.5.603.576a.866.866 0 0 0 .811-.207l3.096-2.923s3.572 2.619 5.598 4.062zm-11.01-8.677l1.679 5.538.373-3.507 10.185-9.186a.277.277 0 0 0 .033-.377.284.284 0 0 0-.376-.064L7.374 14.102z"/></symbol><symbol id="icon-vk" viewBox="0 0 24 24"><path class="st0" d="M13.162 18.994c.609 0 .858-.406.851-.915-.031-1.917.714-2.949 2.059-1.604 1.488 1.488 1.796 2.519 3.603 2.519h3.2c.808 0 1.126-.26 1.126-.668 0-.863-1.421-2.386-2.625-3.504-1.686-1.565-1.765-1.602-.313-3.486C22.864 8.997 25.22 6 23.136 6h-3.981c-.772 0-.828.435-1.103 1.083-.995 2.347-2.886 5.387-3.604 4.922-.751-.485-.407-2.406-.35-5.261.015-.754.011-1.271-1.141-1.539A8.07 8.07 0 0 0 11.148 5c-2.273 0-3.841.953-2.95 1.119 1.571.293 1.42 3.692 1.054 5.16-.638 2.556-3.036-2.024-4.035-4.305C4.976 6.426 4.902 6 4.042 6H.787C.295 6 0 6.16 0 6.516c0 .602 2.96 6.72 5.786 9.77 2.756 2.975 5.48 2.708 7.376 2.708z"/></symbol><symbol id="symbols"/></svg>